<?xml version="1.0" encoding="UTF-8" standalone="no"?>
<!-- Created with Inkscape (http://www.inkscape.org/) -->

<svg
   xmlns:dc="http://purl.org/dc/elements/1.1/"
   xmlns:cc="http://creativecommons.org/ns#"
   xmlns:rdf="http://www.w3.org/1999/02/22-rdf-syntax-ns#"
   xmlns:svg="http://www.w3.org/2000/svg"
   xmlns="http://www.w3.org/2000/svg"
   xmlns:sodipodi="http://sodipodi.sourceforge.net/DTD/sodipodi-0.dtd"
   xmlns:inkscape="http://www.inkscape.org/namespaces/inkscape"
   width="98.859642"
   height="120.11531"
   id="svg2"
   version="1.1"
   inkscape:version="0.48.5 r10040"
   sodipodi:docname="New document 1">
  <defs
     id="defs4">
    <filter
       inkscape:collect="always"
       id="filter3778"
       color-interpolation-filters="sRGB">
      <feGaussianBlur
         inkscape:collect="always"
         stdDeviation="0.15237793"
         id="feGaussianBlur3780" />
    </filter>
  </defs>
  <sodipodi:namedview
     id="base"
     pagecolor="#ffffff"
     bordercolor="#666666"
     borderopacity="1.0"
     inkscape:pageopacity="0.0"
     inkscape:pageshadow="2"
     inkscape:zoom="2.8"
     inkscape:cx="20.467309"
     inkscape:cy="109.92773"
     inkscape:document-units="px"
     inkscape:current-layer="layer1"
     showgrid="false"
     fit-margin-top="0"
     fit-margin-left="0"
     fit-margin-right="0"
     fit-margin-bottom="0"
     inkscape:window-width="1211"
     inkscape:window-height="955"
     inkscape:window-x="1280"
     inkscape:window-y="0"
     inkscape:window-maximized="0" />
  <metadata
     id="metadata7">
    <rdf:RDF>
      <cc:Work
         rdf:about="">
        <dc:format>image/svg+xml</dc:format>
        <dc:type
           rdf:resource="http://purl.org/dc/dcmitype/StillImage" />
        <dc:title></dc:title>
      </cc:Work>
    </rdf:RDF>
  </metadata>
  <g
     inkscape:label="Layer 1"
     inkscape:groupmode="layer"
     id="layer1"
     transform="translate(-7.3331171,-1007.8821)">
    <path
       sodipodi:type="inkscape:offset"
       inkscape:radius="-2.9549448"
       inkscape:original="M 22.6875 1006.0312 C 16.859119 1006.0313 5.96875 1009.3438 5.96875 1009.3438 C 5.96875 1009.3438 3.4698016 1033.7052 10.1875 1041.2188 C 13.216647 1044.6067 23.03125 1051.0938 23.03125 1051.0938 C 23.03125 1051.0938 34.256868 1045.0908 37.71875 1041.2188 C 44.436448 1033.7052 42.875 1009.3438 42.875 1009.3438 C 42.875 1009.3437 29.331854 1006.0312 22.6875 1006.0312 z "
       style="fill:#2196f3;fill-opacity:1;stroke:#1e88e5;stroke-width:0.73199999;stroke-miterlimit:4;stroke-opacity:1;stroke-dasharray:none"
       id="path3768"
       d="m 22.6875,1009 c -2.354418,0 -6.484357,0.7564 -9.84375,1.5625 -2.292968,0.5502 -3.080651,0.8005 -4.09375,1.0937 -0.1618151,2.0373 -0.4034507,5.7011 -0.25,10.7188 0.2080346,6.8026 1.695164,14.4369 3.875,16.875 1.082249,1.2104 4.317071,3.7761 7.09375,5.7812 1.987067,1.435 2.856486,1.9827 3.71875,2.5626 0.946887,-0.5193 2.023392,-1.0783 4.34375,-2.5 3.156631,-1.9342 6.821095,-4.5252 8,-5.8438 2.22536,-2.489 3.908282,-10.1564 4.34375,-16.9688 0.310556,-4.8582 0.209285,-8.4325 0.125,-10.5624 -1.352647,-0.3059 -3.209093,-0.7181 -5.28125,-1.125 C 30.574435,1009.7798 25.518621,1009 22.6875,1009 z"
       transform="matrix(3.054364,0,0,3.054364,-17.361461,-2072.8533)" />
    <text
       xml:space="preserve"
       style="font-size:122.17456055px;font-style:normal;font-weight:normal;line-height:125%;letter-spacing:0px;word-spacing:0px;fill:#ffffff;fill-opacity:1;stroke:none;font-family:Sans"
       x="29.690481"
       y="1083.207"
       id="text3770"
       sodipodi:linespacing="125%"><tspan
         sodipodi:role="line"
         id="tspan3772"
         x="29.690481"
         y="1083.207"
         style="font-size:73.30473328px;fill:#ffffff;fill-opacity:1">A</tspan></text>
    <path
       sodipodi:type="inkscape:offset"
       inkscape:radius="-3.5828424"
       inkscape:original="M 22.6875 1006.0312 C 16.859119 1006.0313 5.96875 1009.3438 5.96875 1009.3438 C 5.96875 1009.3438 3.4698016 1033.7052 10.1875 1041.2188 C 13.216647 1044.6067 23.03125 1051.0938 23.03125 1051.0938 C 23.03125 1051.0938 34.256868 1045.0908 37.71875 1041.2188 C 44.436448 1033.7052 42.875 1009.3438 42.875 1009.3438 C 42.875 1009.3437 29.331854 1006.0312 22.6875 1006.0312 z "
       style="fill:none;stroke:#ffffff;stroke-width:0.73199999;stroke-miterlimit:4;stroke-opacity:1;stroke-dasharray:none"
       id="path3766"
       d="m 22.6875,1009.625 c -2.235472,0 -6.378852,0.7298 -9.71875,1.5312 -2.030276,0.4872 -2.55149,0.6937 -3.625,1 -0.1628765,2.2196 -0.3587201,5.6106 -0.21875,10.1876 0.2065598,6.7543 1.789443,14.3421 3.71875,16.5 0.990384,1.1076 4.235139,3.6909 7,5.6874 1.812719,1.3091 2.449747,1.719 3.375,2.3438 1.022422,-0.5639 1.859365,-1.0008 4,-2.3125 3.139099,-1.9235 6.782148,-4.5314 7.84375,-5.7187 1.984505,-2.2197 3.754981,-9.8276 4.1875,-16.5938 0.281834,-4.409 0.23254,-7.7518 0.15625,-10.0312 -1.310647,-0.2937 -2.930976,-0.6305 -4.8125,-1 -4.129012,-0.811 -9.179474,-1.5938 -11.90625,-1.5938 z"
       transform="matrix(3.054364,0,0,3.054364,-17.361461,-2072.8533)" />
    <text
       xml:space="preserve"
       style="font-size:14px;font-style:normal;font-weight:normal;line-height:125%;letter-spacing:0px;word-spacing:0px;fill:#000000;fill-opacity:1;stroke:none;font-family:Sans"
       x="8.4197779"
       y="1131.1503"
       id="text3788"
       sodipodi:linespacing="125%"><tspan
         sodipodi:role="line"
         id="tspan3790"
         x="8.4197779"
         y="1131.1503"
         style="font-size:4px" /></text>
  </g>
</svg>
