<svg xmlns="http://www.w3.org/2000/svg" viewBox="0 0 493.93 282"><defs><style>.cls-1{fill:#00c35c;}.cls-2,.cls-3{fill:#00ea6e;}.cls-3{font-size:264.17px;font-family:Ubuntu-Bold, Ubuntu;font-weight:700;}</style></defs><title>am_logo</title><g id="Layer_2" data-name="Layer 2"><g id="Layer_1-2" data-name="Layer 1"><path class="cls-1" d="M482,97.12A50.25,50.25,0,0,1,474,99.23c-.9.17-1.82.31-2.75.45a222.58,222.58,0,0,0-29.54,5.95h0c-11.53,3.35-21,8-21.36,14.47C419.74,132,385,120.63,395.12,85h0l.14-.27a42.92,42.92,0,0,1,9.94-11.44c15.5-10.54,45-17.64,66.34-16.55,1.82.09,3.58.24,5.27.46a15.35,15.35,0,0,1,3.57.88,20.94,20.94,0,0,1,13.25,16.64l.08.58A20.94,20.94,0,0,1,482,97.12Z"/><path class="cls-1" d="M471.87,166.24c-14,5.17-23.08,11-28.8,15.8-7,5.92-9,10.37-9,10.37l-16,3.33h0a28.41,28.41,0,0,1-6.58-10c-7.26-18.55,6.82-34.16,29.56-37.74a100,100,0,0,1-17-2.1c5.92-3.68,27.68-12.83,48.41-18.7a17.47,17.47,0,0,1,10.36-.05C489.17,140,487.33,156.87,471.87,166.24Z"/><path class="cls-2" d="M453.11,225.36c-5.56-17.47-23.83-18.46-35.11-29.62h0a28.41,28.41,0,0,1-6.58-10c-7.26-18.55,6.82-34.16,29.56-37.74a65.43,65.43,0,0,1,11.82-.74A68.49,68.49,0,0,0,442,148h0c-8.34,1.31-18.46,4.72-19.05,13.53-.54,8.08,9.75,14.27,20.15,20.47,9.08,5.42,18.23,10.84,20.37,17.56C468,214,453.11,225.36,453.11,225.36Z"/><path class="cls-2" d="M471.87,166.24C473.26,148.62,459,149,442,148h0l-1-.05a100.18,100.18,0,0,1-17-2.1c-6.89-1.59-13.52-4.42-19.07-9.68-14-13.2-18.81-33.86-9.82-51.2h0l.14-.27a42.92,42.92,0,0,1,9.94-11.44,16.24,16.24,0,0,0-3.54,11.07c.84,13.57,20.84,17.55,40,21.26h0c10.68,2.08,21.1,4.06,27.76,7.58a31.67,31.67,0,0,1,13.35,13.94C489.17,140,487.33,156.87,471.87,166.24Z"/><text class="cls-3" transform="translate(0 223.62)">am</text></g></g></svg>