<?xml version="1.0" encoding="UTF-8" standalone="no"?>
<!-- Created with Inkscape (http://www.inkscape.org/) -->

<svg
   xmlns:dc="http://purl.org/dc/elements/1.1/"
   xmlns:cc="http://creativecommons.org/ns#"
   xmlns:rdf="http://www.w3.org/1999/02/22-rdf-syntax-ns#"
   xmlns:svg="http://www.w3.org/2000/svg"
   xmlns="http://www.w3.org/2000/svg"
   xmlns:sodipodi="http://sodipodi.sourceforge.net/DTD/sodipodi-0.dtd"
   xmlns:inkscape="http://www.inkscape.org/namespaces/inkscape"
   id="svg4195"
   version="1.1"
   inkscape:version="0.91 r13725"
   width="1001.7979"
   height="646.23157"
   viewBox="0 0 1001.7979 646.23157"
   sodipodi:docname="ami-paper.svg">
  <metadata
     id="metadata4201">
    <rdf:RDF>
      <cc:Work
         rdf:about="">
        <dc:format>image/svg+xml</dc:format>
        <dc:type
           rdf:resource="http://purl.org/dc/dcmitype/StillImage" />
        <dc:title></dc:title>
      </cc:Work>
    </rdf:RDF>
  </metadata>
  <defs
     id="defs4199" />
  <sodipodi:namedview
     pagecolor="#ffffff"
     bordercolor="#666666"
     borderopacity="1"
     objecttolerance="10"
     gridtolerance="10"
     guidetolerance="10"
     inkscape:pageopacity="0"
     inkscape:pageshadow="2"
     inkscape:window-width="1034"
     inkscape:window-height="623"
     id="namedview4197"
     showgrid="false"
     fit-margin-top="0"
     fit-margin-left="0"
     fit-margin-right="0"
     fit-margin-bottom="0"
     inkscape:zoom="0.184375"
     inkscape:cx="2333.5988"
     inkscape:cy="323.41236"
     inkscape:window-x="142"
     inkscape:window-y="105"
     inkscape:window-maximized="0"
     inkscape:current-layer="svg4195" />
  <g
     id="g4745"
     transform="translate(-9.4520845,-577.51979)">
    <path
       style="fill:#d0f8e5"
       d="m 328.39717,1222.3773 c -1.22531,-0.7132 -19.39778,-35.6329 -40.3833,-77.5995 -20.9855,-41.9666 -38.54547,-75.924 -39.02216,-75.461 -0.4767,0.463 -18.02296,34.978 -38.99171,76.7 l -38.125,75.8582 -80.553231,0.3218 c -54.452668,0.2175 -80.973913,-0.099 -81.8515644,-0.9766 C 7.4980245,1219.248 167.16384,900.38579 170.58366,899.46695 c 3.32384,-0.89306 154.2655,-0.89125 157.5899,0.003 1.90368,0.51144 10.27857,16.15501 33.09738,61.82306 16.80183,33.62609 30.9128,60.73219 31.35768,60.23569 0.44489,-0.4964 21.74072,-63.7684 47.32407,-140.6044 34.27123,-102.92889 47.12293,-140.02709 48.82406,-140.9375 3.68429,-1.97178 157.71347,-1.65758 160.21556,0.32681 1.08356,0.85938 16.7231,45.9086 34.75453,100.10939 18.03141,54.20079 33.20626,98.07579 33.72187,97.5 0.51563,-0.57579 21.01119,-81.46824 45.54569,-179.761 24.53451,-98.29276 45.28374,-179.14353 46.1094,-179.66836 0.82566,-0.52484 36.97181,-0.96287 80.32479,-0.97339 61.15101,-0.0149 79.28551,0.33119 80.88385,1.54336 1.41437,1.07265 8.1512,25.95209 21.48891,79.35965 10.68575,42.78843 19.42865,78.86888 19.42865,80.17876 0,1.30989 -0.8898,2.72305 -1.9772,3.14035 -1.0875,0.4167 -19.06584,0.75813 -39.95185,0.75813 l -37.97459,0 -1.24038,4.6875 c -0.68222,2.57812 -27.64217,110.3289 -59.91102,239.44616 -32.26883,129.11724 -59.06022,235.14854 -59.53641,235.62504 -1.3287,1.3295 -157.39464,1.722 -160.81819,0.4044 -2.64591,-1.0183 -7.11708,-13.6118 -41.5045,-116.9022 C 587.13934,1042.0924 569.4183,990 568.95579,990 c -0.4625,0 -18.18315,52.037 -39.37923,115.6377 -28.32481,84.9912 -39.15101,115.9656 -40.85025,116.875 -3.24494,1.7366 -157.33635,1.6065 -160.32914,-0.1354 z"
       id="path4759"
       inkscape:connector-curvature="0" />
    <path
       style="fill:#a5f1ce"
       d="m 11.25,1221.2662 c -1.5547147,-0.9914 11.790505,-28.4792 78.125,-160.9184 l 80,-159.7228 80,0 80,0 31.36257,62.39163 c 19.40368,38.60107 31.7287,61.79927 32.32276,60.83797 0.52811,-0.8544 21.98031,-64.60835 47.67158,-141.6753 25.69127,-77.06694 47.42728,-140.57606 48.30224,-141.13136 1.80001,-1.1424 155.96785,-1.44838 158.92031,-0.31542 1.24588,0.47809 13.47436,35.42888 35.20638,100.625 18.31361,54.94087 33.74397,99.89248 34.28972,99.89248 0.54575,0 21.15528,-80.85938 45.79897,-179.6875 24.64367,-98.82813 45.31292,-180.39063 45.93163,-181.25 0.87978,-1.22197 18.32234,-1.55832 80.03439,-1.54336 43.4002,0.01 79.57984,0.44536 80.39919,0.9663 1.91461,1.2173 40.92116,157.06503 39.94676,159.60428 -0.6358,1.65685 -5.8732,1.91028 -39.47829,1.91028 -35.64395,0 -38.83412,0.1751 -39.8555,2.1875 -0.61064,1.20312 -27.71345,108.78125 -60.22846,239.0625 -32.51501,130.2813 -59.66656,237.5781 -60.33679,238.4375 -0.95183,1.2205 -18.40076,1.5625 -79.71328,1.5625 -43.17209,0 -79.35373,-0.3296 -80.40363,-0.7325 -1.24952,-0.4795 -15.35375,-41.0671 -40.83139,-117.5 C 587.3068,1040.0454 569.32293,987.5 568.75,987.5 c -0.57293,0 -18.5568,52.5454 -39.96416,116.7675 -25.47764,76.4329 -39.58186,117.0205 -40.83139,117.5 -2.58864,0.9933 -155.96402,0.9382 -158.55751,-0.057 -1.15855,-0.4446 -18.95414,-34.5793 -40.72923,-78.125 -21.26942,-42.5345 -38.95115,-77.3355 -39.29271,-77.3355 -0.34156,0 -18.02329,34.801 -39.29271,77.3355 -21.77509,43.5457 -39.57068,77.6804 -40.72923,78.125 -3.4201,1.3124 -156.020526,0.8836 -158.10306,-0.4443 z"
       id="path4757"
       inkscape:connector-curvature="0" />
    <path
       style="fill:#5ce5a5"
       d="m 11.91524,1220.0651 c -0.402767,-0.6517 35.001975,-72.6517 78.677205,-160 L 170.00195,901.25 l 79.37158,0 79.37157,0 31.2992,62.58859 c 18.16688,36.32801 31.90239,62.38751 32.73682,62.10941 0.79069,-0.2636 22.75404,-64.42847 48.80742,-142.58863 l 47.3698,-142.10937 79.11777,0 c 61.8021,0 79.38811,0.34196 80.353,1.5625 0.67938,0.85937 15.94489,45.71875 33.92337,99.6875 17.97848,53.96875 33.21092,98.95246 33.84987,99.9638 0.63894,1.01134 1.53556,1.46495 1.99249,1.00804 0.45692,-0.45693 21.19446,-82.28439 46.08343,-181.8388 l 45.25267,-181.00804 79.44885,-0.3217 c 62.63101,-0.2536 79.70832,0.0113 80.67471,1.25 1.40617,1.80287 39.0955,152.13321 39.0955,155.93914 0,2.45605 -0.7945,2.50756 -38.67622,2.50756 -28.11912,0 -38.95228,0.39918 -39.6875,1.46237 -0.55621,0.80432 -28.01128,108.94494 -61.01128,240.3125 l -60,238.85013 -79.30309,0.3219 c -54.09036,0.2196 -79.72337,-0.095 -80.625,-0.9896 -0.72705,-0.7213 -18.80629,-53.7412 -40.17609,-117.8219 C 583.64921,1025.3049 569.84904,985.625 568.75,985.625 c -1.09846,0 -14.91266,39.6413 -40.52082,116.2788 -21.36981,63.9534 -39.30925,116.969 -39.86545,117.8125 -0.78124,1.1848 -19.05004,1.5337 -80.31382,1.5337 l -79.30255,0 -39.05652,-78.125 C 268.20975,1100.1563 250.06604,1065 249.37146,1065 c -0.69457,0 -18.41541,34.3864 -39.37966,76.4142 -20.96424,42.0277 -38.8601,77.184 -39.76859,78.125 -1.36311,1.4118 -15.27671,1.7108 -79.613725,1.7108 -47.770303,0 -78.245535,-0.4589 -78.694245,-1.1849 z"
       id="path4755"
       inkscape:connector-curvature="0" />
    <path
       style="fill:#1fe58a"
       d="m 13.412595,1219.2459 c -0.42506,-0.425 34.772806,-71.8667 78.217481,-158.7593 L 170.62039,902.5 l 78.76231,0 78.7623,0 31.23,62.5 c 17.1765,34.375 31.65637,62.5 32.1775,62.5 0.52112,0 1.35395,0.042 1.85072,0.093 0.49678,0.051 22.29365,-63.93341 48.4375,-142.18755 L 489.375,743.125 l 79.375,0 79.375,0 33.85887,101.25 c 23.54784,70.41633 34.39673,101.25 35.625,101.25 1.30474,0 13.6853,-47.59743 47.39113,-182.19654 l 45.625,-182.19652 79.375,0.32152 79.375,0.32154 19.50524,77.5 c 10.72788,42.625 19.27276,77.92188 18.98876,78.4375 -0.2841,0.51563 -17.85198,0.9375 -39.03971,0.9375 -29.3353,0 -38.81381,0.37266 -39.74175,1.5625 -0.67023,0.85938 -27.82178,108.15625 -60.33679,238.4375 -32.51501,130.2813 -59.62006,237.8636 -60.23344,239.0718 -1.04882,2.066 -5.82042,2.1777 -80.12877,1.875 L 649.375,1219.375 609.89177,1101.25 C 583.99501,1023.7726 569.83784,983.125 568.75,983.125 c -1.08784,0 -15.24501,40.6476 -41.14177,118.125 l -39.48323,118.125 -79.375,0 -79.375,0 -38.9148,-77.5 c -29.02386,-57.8019 -39.46646,-77.5 -41.0852,-77.5 -1.61874,0 -12.06134,19.6981 -41.0852,77.5 l -38.9148,77.5 -77.594784,0.3219 c -42.677132,0.177 -77.942561,-0.026 -78.367621,-0.451 z"
       id="path4753"
       inkscape:connector-curvature="0" />
    <path
       style="fill:#00e57b"
       d="m 15,1217.5013 c 0,-1.8517 155.41371,-312.97106 156.875,-314.04466 0.6875,-0.5051 35.98329,-0.92698 78.4351,-0.9375 L 327.49519,902.5 359.375,966.25 c 19.5119,39.0179 32.56459,63.75 33.6449,63.75 1.23145,0 16.25244,-43.36456 49.68509,-143.4375 L 490.625,743.125 l 77.65164,-0.3219 c 61.18622,-0.25365 77.91521,0.0113 78.89467,1.25 0.68366,0.86454 15.45839,44.3219 32.83273,96.5719 36.74903,110.51576 35.90522,108.125 38.16258,108.125 0.95537,0 2.29529,-2.10938 2.97764,-4.6875 2.34256,-8.85105 89.03296,-357.18709 89.5932,-360 l 0.56016,-2.8125 78.02743,0 c 58.25835,0 78.25658,0.37079 78.9319,1.4635 1.52696,2.47067 39.10945,153.99142 38.45705,155.04694 -0.3363,0.54426 -17.94698,0.98956 -39.13471,0.98956 -29.33552,0 -38.8137,0.37265 -39.74135,1.5625 -0.66999,0.85937 -27.48348,106.75 -59.58552,235.3125 -32.10203,128.5625 -58.92566,235.8594 -59.60806,238.4375 l -1.24072,4.6875 -78.70182,0 c -43.286,0 -78.74258,-0.1406 -78.79241,-0.3125 -0.0499,-0.1719 -17.9092,-53.4687 -39.6875,-118.4375 -29.65766,-88.4744 -40.11422,-118.22033 -41.65784,-118.50478 -1.68996,-0.31142 -9.19011,21.00778 -41.66973,118.44678 l -39.60884,118.8266 -78.95525,-0.3218 -78.95525,-0.3218 -38.82285,-77.3162 c -21.35256,-42.5239 -39.76282,-77.8422 -40.9117,-78.4852 -1.80084,-1.0078 -7.52205,9.6963 -41.49161,77.6287 l -39.40275,78.7977 -76.873044,0 C 41.512336,1218.75 15,1218.3194 15,1217.5013 Z"
       id="path4751"
       inkscape:connector-curvature="0" />
    <path
       style="fill:#05ca6f"
       d="m 290,1140 c -21.31469,-42.625 -39.3147,-77.5 -40.00003,-77.5 -0.68533,0 -19.0074,-35.5191 -40.71571,-78.93145 -30.10897,-60.21197 -39.07709,-79.18032 -37.81445,-79.98085 0.91035,-0.57719 36.3833,-1.05804 78.82878,-1.06856 l 77.17358,-0.0191 32.45099,64.6875 32.451,64.68746 -30.86829,92.8125 c -16.97756,51.0469 -31.29211,92.8125 -31.81009,92.8125 -0.51799,0 -18.38109,-34.875 -39.69578,-77.5 z m 359.02017,75.4196 c -0.65029,-1.262 -18.44768,-54.1438 -39.54972,-117.515 -21.10205,-63.3712 -39.145,-115.8658 -40.09545,-116.6546 -2.31653,-1.92254 -79.80449,-234.57779 -78.90714,-236.91625 0.60796,-1.58434 11.229,-1.83375 78.08985,-1.83375 60.41683,0 77.65704,0.34262 78.6214,1.5625 0.67938,0.85937 15.72459,45.15625 33.43382,98.4375 17.70921,53.28125 33.27958,99.44654 34.60083,102.58954 l 2.40227,5.71452 -33.25549,133.00374 c -18.29051,73.1521 -33.45855,133.2069 -33.70674,133.4551 -0.24819,0.2482 -0.98331,-0.5813 -1.63362,-1.8433 z M 848.35305,739.119 c -2.0497,-3.3165 -38.40376,-152.49679 -37.77386,-155.00651 l 0.71843,-2.86249 78.02743,0 c 58.25835,0 78.25658,0.37079 78.9319,1.4635 1.75499,2.83963 39.09085,154.17274 38.23545,154.97915 -1.4468,1.36385 -157.30914,2.76966 -158.13935,1.42635 z"
       id="path4749"
       inkscape:connector-curvature="0" />
    <path
       style="fill:#00bf67"
       d="M 290.71811,1138.8799 C 269.59547,1096.6701 251.4732,1061.2946 250.44639,1060.2678 248.4,1058.2214 172.5,907.03391 172.5,905.00404 c 0,-0.82518 26.40029,-1.25404 77.1973,-1.25404 l 77.1973,0 31.85747,63.75416 31.85748,63.75414 -30.74333,92.1834 -30.74332,92.1833 -38.40479,-76.7451 z m 319.87611,-41.5147 C 589.42883,1033.8456 571.32917,980.66824 570.37279,979.19331 569.08224,977.20304 491.25,745.90552 491.25,744.0606 c 0,-0.18124 34.9688,-0.18464 77.70845,-0.008 L 646.66691,744.375 681.05199,847.5 715.43706,950.625 683.1656,1080 c -17.74931,71.1563 -32.68039,130.1581 -33.18016,131.1152 -0.53702,1.0284 -16.64869,-45.4973 -39.39122,-113.75 z M 848.89819,734.21395 C 846.22345,724.10025 811.25,583.75199 811.25,583.132 c 0,-0.35794 35.26183,-0.50594 78.3596,-0.32889 l 78.3596,0.32189 19.1836,76.72762 c 10.55099,42.20021 19.0235,76.87208 18.8279,77.04861 -0.1956,0.17653 -35.33129,0.73287 -78.07924,1.23632 l -77.72353,0.91536 -1.27974,-4.83896 z"
       id="path4747"
       inkscape:connector-curvature="0" />
  </g>
</svg>
