<svg xmlns="http://www.w3.org/2000/svg" viewBox="0 0 259.4 423.4"><defs><style>.cls-1{fill:#00c35c;}.cls-2{fill:#00ea6e;}</style></defs><title>ami_logo_1</title><g id="Layer_2" data-name="Layer 2"><g id="Layer_1-2" data-name="Layer 1"><path class="cls-1" d="M229.49,101.59a126.09,126.09,0,0,1-20.22,5.29c-2.25.42-4.56.79-6.9,1.12-20.81,2.94-49.33,7.7-74.13,14.92h0c-28.93,8.41-52.82,20.17-53.59,36.31-1.41,30-88.62,1.37-63.19-88,0,0,0,0,0,0,.11-.22.23-.45.36-.68,3.86-7.08,13.58-19.75,24.95-28.7C75.66,15.34,149.6-2.46,203.24.28c4.57.23,9,.61,13.24,1.15a38.53,38.53,0,0,1,9,2.2,52.54,52.54,0,0,1,33.25,41.74l.2,1.45A52.56,52.56,0,0,1,229.49,101.59Z"/><path class="cls-1" d="M204,275c-35.19,13-57.92,27.53-72.28,39.66-17.63,14.86-22.65,26-22.65,26l-40.24,8.36h0a71.29,71.29,0,0,1-16.52-25.15c-18.21-46.55,17.12-85.73,74.17-94.69-13.9-.78-28.46-2-42.57-5.26,14.85-9.24,69.46-32.19,121.47-46.92,9.89-2.8,18.67-2.57,26-.13C247.45,209.15,242.84,251.54,204,275Z"/><path class="cls-2" d="M157,423.4C143,379.56,97.18,377.08,68.87,349.08h0a71.29,71.29,0,0,1-16.52-25.15c-18.21-46.55,17.12-85.73,74.17-94.69a164.19,164.19,0,0,1,29.66-1.87,171.87,171.87,0,0,0-27.15,2h0c-20.94,3.29-46.33,11.83-47.81,34-1.35,20.28,24.47,35.8,50.57,51.37,22.77,13.59,45.75,27.21,51.11,44.06C194.37,394.92,157,423.4,157,423.4Z"/><path class="cls-2" d="M204,275c3.49-44.21-32.32-43.37-75-45.67h0l-2.49-.13c-13.9-.79-28.45-2-42.57-5.27C66.65,220,50,212.88,36.08,199.69,1,166.56-11.12,114.73,11.45,71.21c0,0,0,0,0,0,.11-.22.23-.45.36-.68,3.86-7.08,13.58-19.75,24.95-28.7-6,7.92-9.53,17.14-8.88,27.77,2.1,34,52.3,44,100.34,53.35h0c26.81,5.21,52.94,10.19,69.66,19,14.6,7.72,26.2,20.3,33.51,35C247.45,209.15,242.84,251.54,204,275Z"/></g></g></svg>