<svg xmlns="http://www.w3.org/2000/svg" viewBox="0 0 280.4 437.73"><defs><style>.cls-1{fill:none;stroke:#00ea6e;stroke-linejoin:round;stroke-width:12px;}</style></defs><title>ami_logo_outline</title><g id="Layer_2" data-name="Layer 2"><g id="Layer_1-2" data-name="Layer 1"><path class="cls-1" d="M51.77,47.8C90.66,21.34,164.6,3.54,218.24,6.28c4.57.23,9,.61,13.24,1.15a38.29,38.29,0,0,1,8.95,2.2,52.54,52.54,0,0,1,33.25,41.74l.2,1.45a52.56,52.56,0,0,1-29.39,54.77,126.09,126.09,0,0,1-20.22,5.29c-2.25.42-4.56.79-6.9,1.12-20.81,2.94-49.33,7.7-74.13,14.92h0"/><path class="cls-1" d="M132.51,235.63c-13.9-.79-28.45-2-42.57-5.27-17.29-4-33.92-11.09-47.86-24.28C7,172.95-5.12,121.12,17.45,77.6c0,0,0,0,0,0C21,69.42,38,55.42,51,48.42c-9,8-17.79,16.91-17.14,27.54,2.1,34,52.3,44,100.34,53.35h0c26.81,5.21,52.94,10.19,69.66,19,14.6,7.72,26.2,20.3,33.51,35,16,32.22,11.43,74.61-27.37,98.11,3.49-44.21-32.32-43.37-75-45.67"/><path class="cls-1" d="M99.7,248.34c9.6-7,23.19-10.68,35.3-12.59l-2.49-.13"/><path class="cls-1" d="M135,235.76c42.7,2.3,78.51,1.46,75,45.67-35.19,13-57.92,27.54-72.28,39.66"/><path class="cls-1" d="M101.59,247a32.56,32.56,0,0,0-14.4,24.68c-1.35,20.28,24.48,35.8,50.57,51.37,22.77,13.59,45.76,27.21,51.11,44.06,11.5,36.16-25.9,64.64-25.9,64.64-13.94-43.84-59.79-46.32-88.09-74.31h0a71.41,71.41,0,0,1-16.53-25.16c-14.54-37.16,5-69.62,42.55-85.76"/><path class="cls-1" d="M135,235.76h0l-2.49-.13"/></g></g></svg>