<svg xmlns="http://www.w3.org/2000/svg" viewBox="0 0 1136.35 456.11"><defs><style>.cls-1{fill:#00c35c;}.cls-2,.cls-3{fill:#00ea6e;}.cls-3{font-size:209.51px;}.cls-3,.cls-4{font-family:Ubuntu-Bold, Ubuntu;font-weight:700;}.cls-4{font-size:102.91px;}.cls-5{letter-spacing:-0.02em;}.cls-6{font-size:69.64px;font-family:Ubuntu-Light, Ubuntu;letter-spacing:0.2em;}.cls-7{letter-spacing:0.16em;}</style></defs><title>ami_logo_side_x_side</title><g id="Layer_2" data-name="Layer 2"><g id="Layer_1-2" data-name="Layer 1"><path class="cls-1" d="M229.49,134.2a126.09,126.09,0,0,1-20.22,5.29c-2.25.42-4.56.79-6.9,1.12-20.81,2.94-49.33,7.7-74.13,14.92h0c-28.93,8.41-52.82,20.17-53.59,36.31-1.41,30-88.62,1.37-63.19-88,0,0,0,0,0,0,.11-.22.23-.45.36-.68C15.68,96,25.4,83.36,36.77,74.41,75.66,47.95,149.6,30.15,203.24,32.89c4.57.23,9,.61,13.24,1.15a38.53,38.53,0,0,1,9,2.2A52.54,52.54,0,0,1,258.68,78l.2,1.45A52.56,52.56,0,0,1,229.49,134.2Z"/><path class="cls-1" d="M204,307.65c-35.19,13-57.92,27.53-72.28,39.66-17.63,14.86-22.65,26-22.65,26l-40.24,8.36h0a71.29,71.29,0,0,1-16.52-25.15C34.13,310,69.46,270.81,126.51,261.84c-13.9-.78-28.46-2-42.57-5.26,14.85-9.24,69.46-32.19,121.47-46.92,9.89-2.8,18.67-2.57,26-.13C247.45,241.76,242.84,284.15,204,307.65Z"/><path class="cls-2" d="M157,456C143,412.17,97.18,409.69,68.87,381.69h0a71.29,71.29,0,0,1-16.52-25.15C34.13,310,69.46,270.81,126.51,261.84A164.19,164.19,0,0,1,156.17,260,171.87,171.87,0,0,0,129,262h0c-20.94,3.29-46.33,11.83-47.81,34-1.35,20.28,24.47,35.8,50.57,51.37,22.77,13.59,45.75,27.21,51.11,44.06C194.37,427.53,157,456,157,456Z"/><path class="cls-2" d="M204,307.65c3.49-44.21-32.32-43.37-75-45.67h0l-2.49-.13c-13.9-.79-28.45-2-42.57-5.27-17.29-4-33.92-11.09-47.86-24.28-35.05-33.13-47.2-85-24.63-128.48,0,0,0,0,0,0,.11-.22.23-.45.36-.68C15.68,96,25.4,83.36,36.77,74.41c-6,7.92-9.53,17.14-8.88,27.77,2.1,34,52.3,44,100.34,53.35h0c26.81,5.21,52.94,10.19,69.66,19,14.6,7.72,26.2,20.3,33.51,35C247.45,241.76,242.84,284.15,204,307.65Z"/><text class="cls-3" transform="translate(338.28 177.35)">ami</text><text class="cls-4" transform="translate(338.28 334.34)">Medi<tspan class="cls-5" x="244.31" y="0">c</tspan><tspan x="293.19" y="0">al Imaging</tspan></text><text class="cls-6" transform="translate(338.37 437.51) rotate(0.36)">Javascript <tspan class="cls-7" x="479.28" y="0">T</tspan><tspan x="528.31" y="0">oolkit</tspan></text></g></g></svg>