<svg xmlns="http://www.w3.org/2000/svg" viewBox="0 0 1044.53 428.66"><defs><style>.cls-1{fill:#00c35c;}.cls-2,.cls-3{fill:#00ea6e;}.cls-3{font-size:401.56px;font-family:Ubuntu-Bold, Ubuntu;font-weight:700;}</style></defs><title>logo_ami</title><g id="Layer_2" data-name="Layer 2"><g id="Layer_1-2" data-name="Layer 1"><path class="cls-1" d="M229.49,104.22a126.09,126.09,0,0,1-20.22,5.29c-2.25.42-4.56.79-6.9,1.12-20.81,2.94-49.33,7.7-74.13,14.92h0C99.3,134,75.41,145.72,74.64,161.86c-1.41,30-88.62,1.37-63.19-88,0,0,0,0,0,0,.11-.22.23-.45.36-.68C15.68,66,25.4,53.38,36.77,44.43,75.66,18,149.6.17,203.24,2.91c4.57.23,9,.61,13.24,1.15a38.53,38.53,0,0,1,9,2.2A52.54,52.54,0,0,1,258.68,48l.2,1.45A52.56,52.56,0,0,1,229.49,104.22Z"/><path class="cls-1" d="M204,277.67c-35.19,13-57.92,27.53-72.28,39.66-17.63,14.86-22.65,26-22.65,26l-40.24,8.36h0a71.29,71.29,0,0,1-16.52-25.15C34.13,280,69.46,240.83,126.51,231.87c-13.9-.78-28.46-2-42.57-5.26,14.85-9.24,69.46-32.19,121.47-46.92,9.89-2.8,18.67-2.57,26-.13C247.45,211.78,242.84,254.17,204,277.67Z"/><path class="cls-2" d="M157,426C143,382.19,97.18,379.71,68.87,351.71h0a71.29,71.29,0,0,1-16.52-25.15C34.13,280,69.46,240.83,126.51,231.87A164.19,164.19,0,0,1,156.17,230,171.87,171.87,0,0,0,129,232h0c-20.94,3.29-46.33,11.83-47.81,34-1.35,20.28,24.47,35.8,50.57,51.37,22.77,13.59,45.75,27.21,51.11,44.06C194.37,397.55,157,426,157,426Z"/><path class="cls-2" d="M204,277.67c3.49-44.21-32.32-43.37-75-45.67h0l-2.49-.13c-13.9-.79-28.45-2-42.57-5.27-17.29-4-33.92-11.09-47.86-24.28C1,169.19-11.12,117.36,11.45,73.84c0,0,0,0,0,0,.11-.22.23-.45.36-.68C15.68,66,25.4,53.38,36.77,44.43c-6,7.92-9.53,17.14-8.88,27.77,2.1,34,52.3,44,100.34,53.35h0c26.81,5.21,52.94,10.19,69.66,19,14.6,7.72,26.2,20.3,33.51,35C247.45,211.78,242.84,254.17,204,277.67Z"/><text class="cls-3" transform="translate(360.28 339.92)">ami</text></g></g></svg>